#N canvas 1 1 1348 667 10;
#X declare -lib mrpeach;
#X obj 411 258 dac~;
#X obj 21 447 note~;
#X obj -58 -24 import mrpeach;
#X obj -58 6 udpreceive 7000;
#X obj -58 38 unpackOSC;
#X obj 34 399 unpack f f;
#X obj -4 368 routeOSC /note0;
#X obj 20 476 s~ note0;
#X obj -58 65 s oscPack;
#X obj -4 342 r oscPack;
#X obj 222 -36 r~ note0;
#X obj 346 139 limiter~;
#X obj 289 140 z~ 64;
#X obj 334 183 *~;
#X obj 279 -36 r~ note1;
#X obj 335 -36 r~ note2;
#X obj 391 -36 r~ note3;
#X obj 446 -37 r~ note4;
#X obj 502 -37 r~ note5;
#X obj 559 -37 r~ note6;
#X obj 616 -37 r~ note7;
#X obj 671 -37 r~ note8;
#X obj 726 -38 r~ note9;
#X text 273 83 Output Sound;
#X text 16 42 Retrieve info from kinect;
#X obj 161 400 unpack f f;
#X obj 123 343 r oscPack;
#X obj 123 369 routeOSC /note1;
#X obj 147 477 s~ note1;
#X obj 285 400 unpack f f;
#X obj 247 343 r oscPack;
#X obj 39 569 unpack f f;
#X obj 1 512 r oscPack;
#X obj 166 570 unpack f f;
#X obj 128 513 r oscPack;
#X obj 290 570 unpack f f;
#X obj 252 513 r oscPack;
#X obj 247 369 routeOSC /note2;
#X obj 271 477 s~ note2;
#X obj 1 538 routeOSC /note3;
#X obj 128 539 routeOSC /note4;
#X obj 252 539 routeOSC /note5;
#X obj 25 645 s~ note3;
#X obj 152 646 s~ note4;
#X obj 276 646 s~ note5;
#X obj 39 739 unpack f f;
#X obj 1 682 r oscPack;
#X obj 166 740 unpack f f;
#X obj 128 683 r oscPack;
#X obj 290 740 unpack f f;
#X obj 252 683 r oscPack;
#X obj 1 708 routeOSC /note6;
#X obj 252 709 routeOSC /note8;
#X obj 128 709 routeOSC /note7;
#X obj 25 815 s~ note6;
#X obj 152 816 s~ note7;
#X obj 277 816 s~ note8;
#X obj 45 915 unpack f f;
#X obj 7 858 r oscPack;
#X obj 7 884 routeOSC /note9;
#X obj 32 989 s~ note9;
#X obj 19 64 print;
#X floatatom -16 421 5 0 0 0 - - -;
#X floatatom 111 423 5 0 0 0 - - -;
#X floatatom 235 424 5 0 0 0 - - -;
#X floatatom -11 593 5 0 0 0 - - -;
#X floatatom 116 593 5 0 0 0 - - -;
#X floatatom 240 593 5 0 0 0 - - -;
#X floatatom -11 762 5 0 0 0 - - -;
#X floatatom 116 762 5 0 0 0 - - -;
#X floatatom 240 763 5 0 0 0 - - -;
#X obj 148 448 note~;
#X obj 272 448 note~;
#X obj 26 616 note~;
#X obj 153 617 note~;
#X obj 277 617 note~;
#X obj 26 786 note~;
#X obj 153 787 note~;
#X obj 277 787 note~;
#X obj 32 960 note~;
#X obj 492 216 *~;
#X obj 522 94 env~;
#X obj 522 116 dbtorms;
#X obj 522 160 -;
#X obj 522 182 lop~ 20;
#X msg 522 138 1 \$1;
#X obj -16 395 r f0;
#N canvas 320 166 482 489 CmajArp 0;
#X msg 76 67 1046.5;
#X obj 76 94 s f0;
#X msg 76 122 783.99;
#X obj 76 149 s f1;
#X obj 10 18 inlet;
#X msg 76 177 659.26;
#X msg 75 229 523.25;
#X msg 74 280 392;
#X msg 136 68 329.63;
#X msg 136 123 261.63;
#X msg 136 178 196;
#X msg 135 230 164.81;
#X msg 134 281 130.81;
#X obj 76 204 s f2;
#X obj 75 256 s f3;
#X obj 74 307 s f4;
#X obj 136 95 s f5;
#X obj 136 150 s f6;
#X obj 136 205 s f7;
#X obj 135 257 s f8;
#X obj 134 308 s f9;
#X connect 0 0 1 0;
#X connect 2 0 3 0;
#X connect 4 0 0 0;
#X connect 4 0 8 0;
#X connect 4 0 2 0;
#X connect 4 0 9 0;
#X connect 4 0 5 0;
#X connect 4 0 10 0;
#X connect 4 0 6 0;
#X connect 4 0 11 0;
#X connect 4 0 7 0;
#X connect 4 0 12 0;
#X connect 5 0 13 0;
#X connect 6 0 14 0;
#X connect 7 0 15 0;
#X connect 8 0 16 0;
#X connect 9 0 17 0;
#X connect 10 0 18 0;
#X connect 11 0 19 0;
#X connect 12 0 20 0;
#X restore 892 144 pd CmajArp;
#X obj 892 112 bng 15 250 50 0 empty empty empty 17 7 0 10 -262144
-1 -1;
#X obj 111 399 r f1;
#X floatatom 2 935 5 0 0 0 - - -;
#X obj 2 911 r f9;
#X obj 234 398 r f2;
#X obj -12 567 r f3;
#X obj 116 567 r f4;
#X obj 240 568 r f5;
#X obj -12 738 r f6;
#X obj 115 740 r f7;
#X obj 239 739 r f8;
#X obj 960 112 bng 15 250 50 0 empty empty empty 17 7 0 10 -262144
-1 -1;
#N canvas 823 219 482 489 Cmaj 0;
#X obj 76 94 s f0;
#X obj 76 149 s f1;
#X obj 10 18 inlet;
#X obj 76 204 s f2;
#X obj 75 256 s f3;
#X obj 74 307 s f4;
#X obj 136 95 s f5;
#X obj 136 150 s f6;
#X obj 136 205 s f7;
#X obj 135 257 s f8;
#X obj 134 308 s f9;
#X msg 134 281 261.63;
#X msg 135 230 293.66;
#X msg 136 178 329.63;
#X msg 136 123 349.23;
#X msg 136 68 392;
#X msg 74 280 440;
#X msg 75 229 493.88;
#X msg 76 177 523.25;
#X msg 76 122 587.33;
#X msg 76 67 659.26;
#X connect 2 0 20 0;
#X connect 2 0 15 0;
#X connect 2 0 19 0;
#X connect 2 0 14 0;
#X connect 2 0 18 0;
#X connect 2 0 13 0;
#X connect 2 0 17 0;
#X connect 2 0 12 0;
#X connect 2 0 16 0;
#X connect 2 0 11 0;
#X connect 11 0 10 0;
#X connect 12 0 9 0;
#X connect 13 0 8 0;
#X connect 14 0 7 0;
#X connect 15 0 6 0;
#X connect 16 0 5 0;
#X connect 17 0 4 0;
#X connect 18 0 3 0;
#X connect 19 0 1 0;
#X connect 20 0 0 0;
#X restore 960 144 pd Cmaj;
#X obj 823 112 bng 15 250 50 0 empty empty empty 17 7 0 10 -262144
-1 -1;
#N canvas 1149 275 482 489 CminArp 0;
#X msg 76 67 1046.5;
#X obj 76 94 s f0;
#X msg 76 122 783.99;
#X obj 76 149 s f1;
#X obj 10 18 inlet;
#X msg 75 229 523.25;
#X msg 74 280 392;
#X msg 136 123 261.63;
#X msg 136 178 196;
#X msg 134 281 130.81;
#X obj 76 204 s f2;
#X obj 75 256 s f3;
#X obj 74 307 s f4;
#X obj 136 95 s f5;
#X obj 136 150 s f6;
#X obj 136 205 s f7;
#X obj 135 257 s f8;
#X obj 134 308 s f9;
#X msg 135 230 155.56;
#X msg 136 68 311.13;
#X msg 76 177 622.25;
#X connect 0 0 1 0;
#X connect 2 0 3 0;
#X connect 4 0 0 0;
#X connect 4 0 19 0;
#X connect 4 0 2 0;
#X connect 4 0 7 0;
#X connect 4 0 20 0;
#X connect 4 0 8 0;
#X connect 4 0 5 0;
#X connect 4 0 18 0;
#X connect 4 0 6 0;
#X connect 4 0 9 0;
#X connect 5 0 11 0;
#X connect 6 0 12 0;
#X connect 7 0 14 0;
#X connect 8 0 15 0;
#X connect 9 0 17 0;
#X connect 18 0 16 0;
#X connect 19 0 13 0;
#X connect 20 0 10 0;
#X restore 823 144 pd CminArp;
#X obj 1010 112 bng 15 250 50 0 empty empty empty 17 7 0 10 -262144
-1 -1;
#N canvas 1149 275 482 489 C3rds 0;
#X obj 76 94 s f0;
#X obj 76 149 s f1;
#X obj 10 18 inlet;
#X msg 136 178 196;
#X msg 134 281 130.81;
#X obj 76 204 s f2;
#X obj 75 256 s f3;
#X obj 74 307 s f4;
#X obj 136 95 s f5;
#X obj 136 150 s f6;
#X obj 136 205 s f7;
#X obj 135 257 s f8;
#X obj 134 308 s f9;
#X msg 135 230 155.56;
#X msg 136 68 311.13;
#X msg 136 123 246.94;
#X msg 74 280 369.99;
#X msg 75 229 466.16;
#X msg 76 177 587.33;
#X msg 76 122 698.46;
#X msg 76 67 880;
#X connect 2 0 20 0;
#X connect 2 0 14 0;
#X connect 2 0 19 0;
#X connect 2 0 15 0;
#X connect 2 0 18 0;
#X connect 2 0 3 0;
#X connect 2 0 17 0;
#X connect 2 0 13 0;
#X connect 2 0 16 0;
#X connect 2 0 4 0;
#X connect 3 0 10 0;
#X connect 4 0 12 0;
#X connect 13 0 11 0;
#X connect 14 0 8 0;
#X connect 15 0 9 0;
#X connect 16 0 7 0;
#X connect 17 0 6 0;
#X connect 18 0 5 0;
#X connect 19 0 1 0;
#X connect 20 0 0 0;
#X restore 1010 144 pd C3rds;
#N canvas 274 149 610 317 sum 0;
#X obj 35 24 inlet;
#X obj 53 58 +;
#X obj 77 24 inlet;
#X obj 120 24 inlet;
#X obj 135 60 +;
#X obj 95 102 +;
#X obj 143 148 +;
#X obj 217 184 +;
#X obj 217 227 outlet;
#X obj 314 149 +;
#X obj 257 104 +;
#X obj 220 60 +;
#X obj 302 61 +;
#X obj 388 59 +;
#X obj 416 24 inlet;
#X obj 374 24 inlet;
#X obj 332 24 inlet;
#X obj 291 23 inlet;
#X obj 247 24 inlet;
#X obj 204 24 inlet;
#X obj 162 25 inlet;
#X connect 0 0 1 0;
#X connect 1 0 5 0;
#X connect 2 0 1 1;
#X connect 3 0 4 0;
#X connect 4 0 5 1;
#X connect 5 0 6 0;
#X connect 6 0 7 0;
#X connect 7 0 8 0;
#X connect 9 0 7 1;
#X connect 10 0 9 0;
#X connect 11 0 10 0;
#X connect 12 0 10 1;
#X connect 13 0 9 1;
#X connect 14 0 13 1;
#X connect 15 0 13 0;
#X connect 16 0 12 1;
#X connect 17 0 12 0;
#X connect 18 0 11 1;
#X connect 19 0 11 0;
#X connect 20 0 4 1;
#X restore 574 420 pd sum;
#X floatatom 585 525 10 0 0 0 - - -;
#X obj 585 490 max 1;
#X obj 585 555 s maxAmp;
#X obj 149 -22 r maxAmp;
#X obj 222 9 /~;
#X obj 278 9 /~;
#X obj 334 9 /~;
#X obj 391 10 /~;
#X obj 446 9 /~;
#X obj 502 8 /~;
#X obj 558 7 /~;
#X obj 615 8 /~;
#X obj 670 8 /~;
#X obj 726 10 /~;
#N canvas 274 149 610 317 add 0;
#X obj 120 24 inlet~;
#X obj 162 24 inlet~;
#X obj 204 24 inlet~;
#X obj 247 24 inlet~;
#X obj 290 24 inlet~;
#X obj 332 24 inlet~;
#X obj 374 24 inlet~;
#X obj 416 24 inlet~;
#X obj 53 58 +~;
#X obj 135 60 +~;
#X obj 220 60 +~;
#X obj 302 61 +~;
#X obj 388 59 +~;
#X obj 95 102 +~;
#X obj 257 104 +~;
#X obj 314 149 +~;
#X obj 143 148 +~;
#X obj 217 184 +~;
#X obj 217 228 outlet~;
#X obj 77 24 inlet~;
#X obj 35 24 inlet~;
#X connect 0 0 9 0;
#X connect 1 0 9 1;
#X connect 2 0 10 0;
#X connect 3 0 10 1;
#X connect 4 0 11 0;
#X connect 5 0 11 1;
#X connect 6 0 12 0;
#X connect 7 0 12 1;
#X connect 8 0 13 0;
#X connect 9 0 13 1;
#X connect 10 0 14 0;
#X connect 11 0 14 1;
#X connect 12 0 15 1;
#X connect 13 0 16 0;
#X connect 14 0 15 0;
#X connect 15 0 17 1;
#X connect 16 0 17 0;
#X connect 17 0 18 0;
#X connect 19 0 8 1;
#X connect 20 0 8 0;
#X restore 386 81 pd add;
#X obj 974 -16 r oscPack;
#X obj 974 10 routeOSC /status;
#X obj 974 38 unpack i;
#X floatatom 1094 69 5 0 0 0 - - -;
#X obj 974 67 route 0 1 2 3 4;
#X obj 1067 112 bng 15 250 50 0 empty empty empty 17 7 0 10 -262144
-1 -1;
#N canvas 807 136 532 395 CJazz 1;
#X obj 86 104 s f0;
#X obj 86 159 s f1;
#X obj 20 28 inlet;
#X obj 86 214 s f2;
#X obj 85 266 s f3;
#X obj 84 317 s f4;
#X obj 146 105 s f5;
#X obj 146 160 s f6;
#X obj 146 215 s f7;
#X obj 145 267 s f8;
#X obj 144 318 s f9;
#X msg 144 291 261.63;
#X msg 145 240 293.66;
#X msg 146 133 349.23;
#X msg 146 188 311.13;
#X msg 146 78 369.99;
#X msg 84 290 415.3;
#X msg 85 239 440;
#X msg 86 187 493.88;
#X msg 86 132 523.25;
#X msg 86 77 587.33;
#X connect 2 0 20 0;
#X connect 2 0 15 0;
#X connect 2 0 19 0;
#X connect 2 0 13 0;
#X connect 2 0 18 0;
#X connect 2 0 14 0;
#X connect 2 0 17 0;
#X connect 2 0 12 0;
#X connect 2 0 16 0;
#X connect 2 0 11 0;
#X connect 11 0 10 0;
#X connect 12 0 9 0;
#X connect 13 0 7 0;
#X connect 14 0 8 0;
#X connect 15 0 6 0;
#X connect 16 0 5 0;
#X connect 17 0 4 0;
#X connect 18 0 3 0;
#X connect 19 0 1 0;
#X connect 20 0 0 0;
#X restore 1068 143 pd CJazz;
#X text 861 45 Mode switch;
#X connect 1 0 7 0;
#X connect 3 0 4 0;
#X connect 4 0 8 0;
#X connect 5 0 1 1;
#X connect 5 0 105 0;
#X connect 5 1 1 2;
#X connect 6 0 5 0;
#X connect 9 0 6 0;
#X connect 10 0 110 0;
#X connect 11 0 13 0;
#X connect 12 0 13 0;
#X connect 14 0 111 0;
#X connect 15 0 112 0;
#X connect 16 0 113 0;
#X connect 17 0 114 0;
#X connect 18 0 115 0;
#X connect 19 0 116 0;
#X connect 20 0 117 0;
#X connect 21 0 118 0;
#X connect 22 0 119 0;
#X connect 25 0 71 1;
#X connect 25 0 105 1;
#X connect 25 1 71 2;
#X connect 26 0 27 0;
#X connect 27 0 25 0;
#X connect 29 0 72 1;
#X connect 29 0 105 2;
#X connect 29 1 72 2;
#X connect 30 0 37 0;
#X connect 31 0 73 1;
#X connect 31 0 105 3;
#X connect 31 1 73 2;
#X connect 32 0 39 0;
#X connect 33 0 74 1;
#X connect 33 0 105 4;
#X connect 33 1 74 2;
#X connect 34 0 40 0;
#X connect 35 0 75 1;
#X connect 35 0 105 5;
#X connect 35 1 75 2;
#X connect 36 0 41 0;
#X connect 37 0 29 0;
#X connect 39 0 31 0;
#X connect 40 0 33 0;
#X connect 41 0 35 0;
#X connect 45 0 76 1;
#X connect 45 0 105 6;
#X connect 45 1 76 2;
#X connect 46 0 51 0;
#X connect 47 0 77 1;
#X connect 47 0 105 7;
#X connect 47 1 77 2;
#X connect 48 0 53 0;
#X connect 49 0 78 1;
#X connect 49 0 105 8;
#X connect 49 1 78 2;
#X connect 50 0 52 0;
#X connect 51 0 45 0;
#X connect 52 0 49 0;
#X connect 53 0 47 0;
#X connect 57 0 79 1;
#X connect 57 0 105 9;
#X connect 57 1 79 2;
#X connect 58 0 59 0;
#X connect 59 0 57 0;
#X connect 62 0 1 0;
#X connect 63 0 71 0;
#X connect 64 0 72 0;
#X connect 65 0 73 0;
#X connect 66 0 74 0;
#X connect 67 0 75 0;
#X connect 68 0 76 0;
#X connect 69 0 77 0;
#X connect 70 0 78 0;
#X connect 71 0 28 0;
#X connect 72 0 38 0;
#X connect 73 0 42 0;
#X connect 74 0 43 0;
#X connect 75 0 44 0;
#X connect 76 0 54 0;
#X connect 77 0 55 0;
#X connect 78 0 56 0;
#X connect 79 0 60 0;
#X connect 81 0 82 0;
#X connect 82 0 85 0;
#X connect 83 0 84 0;
#X connect 84 0 80 1;
#X connect 85 0 83 0;
#X connect 86 0 62 0;
#X connect 88 0 87 0;
#X connect 89 0 63 0;
#X connect 90 0 79 0;
#X connect 91 0 90 0;
#X connect 92 0 64 0;
#X connect 93 0 65 0;
#X connect 94 0 66 0;
#X connect 95 0 67 0;
#X connect 96 0 68 0;
#X connect 97 0 69 0;
#X connect 98 0 70 0;
#X connect 99 0 100 0;
#X connect 101 0 102 0;
#X connect 103 0 104 0;
#X connect 105 0 107 0;
#X connect 106 0 108 0;
#X connect 107 0 106 0;
#X connect 109 0 110 1;
#X connect 109 0 111 1;
#X connect 109 0 112 1;
#X connect 109 0 113 1;
#X connect 109 0 114 1;
#X connect 109 0 115 1;
#X connect 109 0 116 1;
#X connect 109 0 117 1;
#X connect 109 0 118 1;
#X connect 109 0 119 1;
#X connect 110 0 120 0;
#X connect 111 0 120 1;
#X connect 112 0 120 2;
#X connect 113 0 120 3;
#X connect 114 0 120 4;
#X connect 115 0 120 5;
#X connect 116 0 120 6;
#X connect 117 0 120 7;
#X connect 118 0 120 8;
#X connect 119 0 120 9;
#X connect 120 0 12 0;
#X connect 120 0 11 0;
#X connect 120 0 81 0;
#X connect 120 0 80 0;
#X connect 120 0 0 0;
#X connect 120 0 0 1;
#X connect 121 0 122 0;
#X connect 122 0 123 0;
#X connect 123 0 124 0;
#X connect 123 0 125 0;
#X connect 125 0 101 0;
#X connect 125 1 88 0;
#X connect 125 2 99 0;
#X connect 125 3 103 0;
#X connect 125 4 126 0;
#X connect 126 0 127 0;
