#N canvas 960 0 944 1012 10;
#X declare -lib mrpeach;
#X obj 390 127 dac~;
#X obj 20 269 note~;
#X obj -58 -24 import mrpeach;
#X obj -58 6 udpreceive 7000;
#X obj -58 38 unpackOSC;
#X obj 33 221 unpack f f;
#X obj -5 190 routeOSC /note0;
#X obj 19 298 s~ note0;
#X obj -58 65 s oscPack;
#X obj -5 164 r oscPack;
#X obj 222 -36 r~ note0;
#X obj 411 51 limiter~;
#X obj 354 52 z~ 64;
#X obj 399 95 *~;
#N canvas 274 149 610 317 add 0;
#X obj 120 24 inlet~;
#X obj 162 24 inlet~;
#X obj 204 24 inlet~;
#X obj 247 24 inlet~;
#X obj 290 24 inlet~;
#X obj 332 24 inlet~;
#X obj 374 24 inlet~;
#X obj 416 24 inlet~;
#X obj 53 58 +~;
#X obj 135 60 +~;
#X obj 220 60 +~;
#X obj 302 61 +~;
#X obj 388 59 +~;
#X obj 95 102 +~;
#X obj 257 104 +~;
#X obj 314 149 +~;
#X obj 143 148 +~;
#X obj 217 184 +~;
#X obj 217 228 outlet~;
#X obj 77 24 inlet~;
#X obj 35 24 inlet~;
#X connect 0 0 9 0;
#X connect 1 0 9 1;
#X connect 2 0 10 0;
#X connect 3 0 10 1;
#X connect 4 0 11 0;
#X connect 5 0 11 1;
#X connect 6 0 12 0;
#X connect 7 0 12 1;
#X connect 8 0 13 0;
#X connect 9 0 13 1;
#X connect 10 0 14 0;
#X connect 11 0 14 1;
#X connect 12 0 15 1;
#X connect 13 0 16 0;
#X connect 14 0 15 0;
#X connect 15 0 17 1;
#X connect 16 0 17 0;
#X connect 17 0 18 0;
#X connect 19 0 8 1;
#X connect 20 0 8 0;
#X restore 378 14 pd add;
#X obj 279 -36 r~ note1;
#X obj 335 -36 r~ note2;
#X obj 391 -36 r~ note3;
#X obj 446 -37 r~ note4;
#X obj 502 -37 r~ note5;
#X obj 559 -37 r~ note6;
#X obj 616 -37 r~ note7;
#X obj 671 -37 r~ note8;
#X obj 726 -38 r~ note9;
#X text 509 74 Output Sound;
#X text 16 42 Retrieve info from kinect;
#X msg -17 220 130.81;
#X obj 160 222 unpack f f;
#X obj 122 165 r oscPack;
#X obj 122 191 routeOSC /note1;
#X obj 146 299 s~ note1;
#X msg 110 221 164.81;
#X obj 284 222 unpack f f;
#X obj 246 165 r oscPack;
#X msg 234 221 196;
#X obj 38 391 unpack f f;
#X obj 0 334 r oscPack;
#X obj 165 392 unpack f f;
#X obj 127 335 r oscPack;
#X obj 289 392 unpack f f;
#X obj 251 335 r oscPack;
#X obj 246 191 routeOSC /note2;
#X obj 270 299 s~ note2;
#X obj 0 360 routeOSC /note3;
#X obj 127 361 routeOSC /note4;
#X obj 251 361 routeOSC /note5;
#X obj 24 467 s~ note3;
#X obj 151 468 s~ note4;
#X obj 275 468 s~ note5;
#X msg -12 390 261.63;
#X msg 115 391 329.63;
#X msg 239 391 392;
#X obj 38 561 unpack f f;
#X obj 0 504 r oscPack;
#X obj 165 562 unpack f f;
#X obj 127 505 r oscPack;
#X obj 289 562 unpack f f;
#X obj 251 505 r oscPack;
#X obj 0 530 routeOSC /note6;
#X obj 251 531 routeOSC /note8;
#X obj 127 531 routeOSC /note7;
#X obj 24 637 s~ note6;
#X obj 151 638 s~ note7;
#X obj 276 638 s~ note8;
#X msg -12 560 523.25;
#X msg 115 561 659.26;
#X msg 239 561 783.99;
#X obj 44 737 unpack f f;
#X obj 6 680 r oscPack;
#X obj 6 706 routeOSC /note9;
#X obj 31 811 s~ note9;
#X msg -9 737 1046.5;
#X obj 519 471 loadbang;
#X obj 19 64 print;
#X obj 519 445 bng 15 250 50 0 empty empty empty 17 7 0 10 -262144
-1 -1;
#X floatatom -17 245 5 0 0 0 - - -;
#X floatatom 110 245 5 0 0 0 - - -;
#X floatatom 234 246 5 0 0 0 - - -;
#X floatatom -12 415 5 0 0 0 - - -;
#X floatatom 115 415 5 0 0 0 - - -;
#X floatatom 239 415 5 0 0 0 - - -;
#X floatatom -12 584 5 0 0 0 - - -;
#X floatatom 115 584 5 0 0 0 - - -;
#X floatatom 239 585 5 0 0 0 - - -;
#X floatatom -9 760 5 0 0 0 - - -;
#X obj 147 270 note~;
#X obj 271 270 note~;
#X obj 25 438 note~;
#X obj 152 439 note~;
#X obj 276 439 note~;
#X obj 25 608 note~;
#X obj 152 609 note~;
#X obj 276 609 note~;
#X obj 31 782 note~;
#X connect 1 0 7 0;
#X connect 3 0 4 0;
#X connect 4 0 8 0;
#X connect 4 0 73 0;
#X connect 5 0 1 1;
#X connect 5 1 1 2;
#X connect 6 0 5 0;
#X connect 9 0 6 0;
#X connect 10 0 14 0;
#X connect 11 0 13 0;
#X connect 12 0 13 0;
#X connect 13 0 0 0;
#X connect 13 0 0 1;
#X connect 14 0 12 0;
#X connect 14 0 11 0;
#X connect 15 0 14 1;
#X connect 16 0 14 2;
#X connect 17 0 14 3;
#X connect 18 0 14 4;
#X connect 19 0 14 5;
#X connect 20 0 14 6;
#X connect 21 0 14 7;
#X connect 22 0 14 8;
#X connect 23 0 14 9;
#X connect 26 0 75 0;
#X connect 27 0 85 1;
#X connect 27 1 85 2;
#X connect 28 0 29 0;
#X connect 29 0 27 0;
#X connect 31 0 76 0;
#X connect 32 0 86 1;
#X connect 32 1 86 2;
#X connect 33 0 41 0;
#X connect 34 0 77 0;
#X connect 35 0 87 1;
#X connect 35 1 87 2;
#X connect 36 0 43 0;
#X connect 37 0 88 1;
#X connect 37 1 88 2;
#X connect 38 0 44 0;
#X connect 39 0 89 1;
#X connect 39 1 89 2;
#X connect 40 0 45 0;
#X connect 41 0 32 0;
#X connect 43 0 35 0;
#X connect 44 0 37 0;
#X connect 45 0 39 0;
#X connect 49 0 78 0;
#X connect 50 0 79 0;
#X connect 51 0 80 0;
#X connect 52 0 90 1;
#X connect 52 1 90 2;
#X connect 53 0 58 0;
#X connect 54 0 91 1;
#X connect 54 1 91 2;
#X connect 55 0 60 0;
#X connect 56 0 92 1;
#X connect 56 1 92 2;
#X connect 57 0 59 0;
#X connect 58 0 52 0;
#X connect 59 0 56 0;
#X connect 60 0 54 0;
#X connect 64 0 81 0;
#X connect 65 0 82 0;
#X connect 66 0 83 0;
#X connect 67 0 93 1;
#X connect 67 1 93 2;
#X connect 68 0 69 0;
#X connect 69 0 67 0;
#X connect 71 0 84 0;
#X connect 72 0 26 0;
#X connect 72 0 31 0;
#X connect 72 0 34 0;
#X connect 72 0 49 0;
#X connect 72 0 50 0;
#X connect 72 0 51 0;
#X connect 72 0 64 0;
#X connect 72 0 65 0;
#X connect 72 0 66 0;
#X connect 72 0 71 0;
#X connect 74 0 72 0;
#X connect 75 0 1 0;
#X connect 76 0 85 0;
#X connect 77 0 86 0;
#X connect 78 0 87 0;
#X connect 79 0 88 0;
#X connect 80 0 89 0;
#X connect 81 0 90 0;
#X connect 82 0 91 0;
#X connect 83 0 92 0;
#X connect 84 0 93 0;
#X connect 85 0 30 0;
#X connect 86 0 42 0;
#X connect 87 0 46 0;
#X connect 88 0 47 0;
#X connect 89 0 48 0;
#X connect 90 0 61 0;
#X connect 91 0 62 0;
#X connect 92 0 63 0;
#X connect 93 0 70 0;
