#N canvas 960 0 944 1102 10;
#X declare -lib mrpeach;
#X obj 390 127 dac~;
#X obj -34 286 note~;
#X obj -58 -24 import mrpeach;
#X obj -58 6 udpreceive 7000;
#X obj -58 38 unpackOSC;
#X obj -21 257 unpack f f;
#X obj -59 226 routeOSC /note0;
#X floatatom -59 256 5 0 0 0 - - -;
#X obj -35 315 s~ note0;
#X obj -58 65 s oscPack;
#X obj -59 200 r oscPack;
#X obj 222 -36 r~ note0;
#X obj 411 51 limiter~;
#X obj 354 52 z~ 64;
#X obj 399 95 *~;
#N canvas 274 149 610 317 add 0;
#X obj 120 24 inlet~;
#X obj 162 24 inlet~;
#X obj 204 24 inlet~;
#X obj 247 24 inlet~;
#X obj 290 24 inlet~;
#X obj 332 24 inlet~;
#X obj 374 24 inlet~;
#X obj 416 24 inlet~;
#X obj 53 58 +~;
#X obj 135 60 +~;
#X obj 220 60 +~;
#X obj 302 61 +~;
#X obj 388 59 +~;
#X obj 95 102 +~;
#X obj 257 104 +~;
#X obj 314 149 +~;
#X obj 143 148 +~;
#X obj 217 184 +~;
#X obj 217 228 outlet~;
#X obj 77 24 inlet~;
#X obj 35 24 inlet~;
#X connect 0 0 9 0;
#X connect 1 0 9 1;
#X connect 2 0 10 0;
#X connect 3 0 10 1;
#X connect 4 0 11 0;
#X connect 5 0 11 1;
#X connect 6 0 12 0;
#X connect 7 0 12 1;
#X connect 8 0 13 0;
#X connect 9 0 13 1;
#X connect 10 0 14 0;
#X connect 11 0 14 1;
#X connect 12 0 15 1;
#X connect 13 0 16 0;
#X connect 14 0 15 0;
#X connect 15 0 17 1;
#X connect 16 0 17 0;
#X connect 17 0 18 0;
#X connect 19 0 8 1;
#X connect 20 0 8 0;
#X restore 378 14 pd add;
#X obj 279 -36 r~ note1;
#X obj 335 -36 r~ note2;
#X obj 391 -36 r~ note3;
#X obj 446 -37 r~ note4;
#X obj 502 -37 r~ note5;
#X obj 559 -37 r~ note6;
#X obj 616 -37 r~ note7;
#X obj 671 -37 r~ note8;
#X obj 726 -38 r~ note9;
#X text 509 74 Output Sound;
#X text 16 42 Retrieve info from kinect;
#X obj 79 288 note~;
#X obj 92 259 unpack f f;
#X floatatom 54 258 5 0 0 0 - - -;
#X obj 54 202 r oscPack;
#X obj 188 290 note~;
#X obj 201 261 unpack f f;
#X floatatom 163 260 5 0 0 0 - - -;
#X obj 163 204 r oscPack;
#X obj 298 292 note~;
#X obj 311 263 unpack f f;
#X floatatom 273 262 5 0 0 0 - - -;
#X obj 273 206 r oscPack;
#X obj 405 294 note~;
#X obj 418 265 unpack f f;
#X floatatom 380 264 5 0 0 0 - - -;
#X obj 380 208 r oscPack;
#X obj -35 433 note~;
#X obj -22 404 unpack f f;
#X floatatom -60 403 5 0 0 0 - - -;
#X obj -60 347 r oscPack;
#X obj 78 435 note~;
#X obj 91 406 unpack f f;
#X floatatom 53 405 5 0 0 0 - - -;
#X obj 53 349 r oscPack;
#X obj 187 437 note~;
#X obj 200 408 unpack f f;
#X floatatom 162 407 5 0 0 0 - - -;
#X obj 162 351 r oscPack;
#X obj 297 439 note~;
#X obj 310 410 unpack f f;
#X floatatom 272 409 5 0 0 0 - - -;
#X obj 272 353 r oscPack;
#X obj 404 441 note~;
#X obj 417 412 unpack f f;
#X floatatom 379 411 5 0 0 0 - - -;
#X obj 379 355 r oscPack;
#X obj 78 317 s~ note1;
#X obj 187 319 s~ note2;
#X obj 297 321 s~ note3;
#X obj 404 323 s~ note4;
#X obj -36 462 s~ note5;
#X obj 77 464 s~ note6;
#X obj 186 466 s~ note7;
#X obj 296 468 s~ note8;
#X obj 403 470 s~ note9;
#X obj 54 228 routeOSC /note1;
#X obj 163 230 routeOSC /note2;
#X obj 273 232 routeOSC /note3;
#X obj 380 234 routeOSC /note4;
#X obj -60 373 routeOSC /note5;
#X obj 53 375 routeOSC /note6;
#X obj 162 377 routeOSC /note7;
#X obj 272 379 routeOSC /note8;
#X obj 379 381 routeOSC /note9;
#X connect 1 0 8 0;
#X connect 3 0 4 0;
#X connect 4 0 9 0;
#X connect 5 0 1 1;
#X connect 5 1 1 2;
#X connect 6 0 5 0;
#X connect 7 0 1 0;
#X connect 10 0 6 0;
#X connect 11 0 15 0;
#X connect 12 0 14 0;
#X connect 13 0 14 0;
#X connect 14 0 0 0;
#X connect 14 0 0 1;
#X connect 15 0 13 0;
#X connect 15 0 12 0;
#X connect 16 0 15 1;
#X connect 17 0 15 2;
#X connect 18 0 15 3;
#X connect 19 0 15 4;
#X connect 20 0 15 5;
#X connect 21 0 15 6;
#X connect 22 0 15 7;
#X connect 23 0 15 8;
#X connect 24 0 15 9;
#X connect 27 0 63 0;
#X connect 28 0 27 1;
#X connect 28 1 27 2;
#X connect 29 0 27 0;
#X connect 30 0 72 0;
#X connect 31 0 64 0;
#X connect 32 0 31 1;
#X connect 32 1 31 2;
#X connect 33 0 31 0;
#X connect 34 0 73 0;
#X connect 35 0 65 0;
#X connect 36 0 35 1;
#X connect 36 1 35 2;
#X connect 37 0 35 0;
#X connect 38 0 74 0;
#X connect 39 0 66 0;
#X connect 40 0 39 1;
#X connect 40 1 39 2;
#X connect 41 0 39 0;
#X connect 42 0 75 0;
#X connect 43 0 67 0;
#X connect 44 0 43 1;
#X connect 44 1 43 2;
#X connect 45 0 43 0;
#X connect 46 0 76 0;
#X connect 47 0 68 0;
#X connect 48 0 47 1;
#X connect 48 1 47 2;
#X connect 49 0 47 0;
#X connect 50 0 77 0;
#X connect 51 0 69 0;
#X connect 52 0 51 1;
#X connect 52 1 51 2;
#X connect 53 0 51 0;
#X connect 54 0 78 0;
#X connect 55 0 70 0;
#X connect 56 0 55 1;
#X connect 56 1 55 2;
#X connect 57 0 55 0;
#X connect 58 0 79 0;
#X connect 59 0 71 0;
#X connect 60 0 59 1;
#X connect 60 1 59 2;
#X connect 61 0 59 0;
#X connect 62 0 80 0;
#X connect 72 0 28 0;
#X connect 73 0 32 0;
#X connect 74 0 36 0;
#X connect 75 0 40 0;
#X connect 76 0 44 0;
#X connect 77 0 48 0;
#X connect 78 0 52 0;
#X connect 79 0 56 0;
#X connect 80 0 60 0;
