#N canvas 568 90 620 499 10;
#X obj 146 222 dac~;
#X obj 137 105 bng 15 250 50 0 empty empty empty 17 7 0 10 -262144
-1 -1;
#X floatatom 142 135 5 0 0 0 - - -;
#X obj 144 169 square~;
#X obj 78 170 saw~;
#X obj 224 170 phasor~;
#X obj 92 64 note~;
#X connect 1 0 2 0;
#X connect 1 0 3 1;
#X connect 2 0 3 0;
#X connect 2 0 4 0;
#X connect 2 0 5 0;
#X connect 4 0 0 0;
#X connect 4 0 0 1;
