#N canvas 1055 199 739 613 10;
#X obj 74 57 inlet;
#X obj 212 59 inlet;
#X obj 43 107 osc~;
#X obj 315 55 inlet;
#X obj 212 104 line~;
#X obj 198 353 *~;
#X obj 198 407 outlet~;
#X text 64 36 1 Frequency;
#X text 201 38 2 Amplitude;
#X text 298 34 3 Modulation;
#X obj 88 106 saw~;
#X obj 129 106 phasor~;
#X obj 315 413 tabwrite~ array1;
#N canvas 0 0 450 300 (subpatch) 0;
#X array array1 400 float 0;
#X coords 0 1 399 -1 200 140 1;
#X restore 447 170 graph;
#X obj 315 353 bng 15 250 50 0 empty empty empty 17 7 0 10 -262144
-1 -1;
#X obj 42 216 *~;
#X obj 89 217 *~;
#X obj 129 216 *~;
#X obj 60 253 +~;
#X obj 59 281 *~ 0.5;
#X obj 109 253 +~;
#X obj 108 281 *~ 0.5;
#X obj 88 316 +~;
#X obj 315 136 expr max(0 \, $f1);
#X obj 329 107 expr 1 - $f1;
#X obj 315 162 expr 1 - $f1;
#X obj 329 82 expr min(1 \, ($f1 + 1));
#X obj 265 179 min;
#X connect 0 0 2 0;
#X connect 0 0 10 0;
#X connect 0 0 11 0;
#X connect 1 0 4 0;
#X connect 2 0 15 0;
#X connect 3 0 23 0;
#X connect 3 0 26 0;
#X connect 4 0 5 1;
#X connect 5 0 6 0;
#X connect 5 0 12 0;
#X connect 10 0 16 0;
#X connect 11 0 17 0;
#X connect 14 0 12 0;
#X connect 15 0 18 0;
#X connect 16 0 18 1;
#X connect 16 0 20 0;
#X connect 17 0 20 1;
#X connect 18 0 19 0;
#X connect 19 0 22 0;
#X connect 20 0 21 0;
#X connect 21 0 22 1;
#X connect 22 0 5 0;
#X connect 23 0 25 0;
#X connect 23 0 17 1;
#X connect 24 0 15 1;
#X connect 25 0 27 1;
#X connect 26 0 24 0;
#X connect 26 0 27 0;
#X connect 27 0 16 1;
