#N canvas 236 158 450 300 10;
#X obj 74 57 inlet;
#X obj 223 54 inlet;
#X obj 43 107 osc~;
#X obj 308 56 inlet;
#X obj 221 113 line~;
#X obj 128 194 *~;
#X obj 160 256 outlet~;
#X text 64 36 1 Frequency;
#X text 212 33 2 Amplitude;
#X text 298 34 3 Modulation;
#X obj 88 106 saw~;
#X obj 129 106 phasor~;
#X connect 0 0 2 0;
#X connect 0 0 10 0;
#X connect 0 0 11 0;
#X connect 1 0 4 0;
#X connect 2 0 5 0;
#X connect 4 0 5 1;
#X connect 5 0 6 0;
