#N canvas 0 0 450 300 10;
#X obj 62 24 inlet;
#X obj 95 55 * -1;
#X obj 24 94 phasor~;
#X obj 101 96 phasor~;
#X msg 153 57 0;
#X obj 25 124 *~ 2;
#X obj 25 154 -~ 1;
#X obj 25 182 clip~ 0 1;
#X obj 101 124 *~ 2;
#X obj 101 154 -~ 1;
#X obj 101 183 clip~ 0 1;
#X obj 69 221 +~;
#X obj 69 256 *~ 0.7;
#X obj 69 292 outlet~;
#X connect 0 0 1 0;
#X connect 0 0 2 0;
#X connect 1 0 3 0;
#X connect 2 0 5 0;
#X connect 3 0 8 0;
#X connect 4 0 3 1;
#X connect 4 0 2 1;
#X connect 5 0 6 0;
#X connect 6 0 7 0;
#X connect 7 0 11 0;
#X connect 8 0 9 0;
#X connect 9 0 10 0;
#X connect 10 0 11 1;
#X connect 11 0 12 0;
#X connect 12 0 13 0;
