#N canvas 823 228 450 300 10;
#X obj 74 18 inlet;
#X obj 84 261 outlet~;
#X obj 101 53 * -1;
#X obj 48 87 phasor~;
#X obj 106 87 phasor~;
#X msg 152 54 0;
#X msg 191 53 0.5;
#X obj 85 126 +~;
#X obj 85 159 -~ 1;
#X obj 85 196 *~ 0.7;
#X obj 167 19 inlet;
#X connect 0 0 3 0;
#X connect 0 0 2 0;
#X connect 2 0 4 0;
#X connect 3 0 7 0;
#X connect 4 0 7 1;
#X connect 5 0 3 1;
#X connect 6 0 4 1;
#X connect 7 0 8 0;
#X connect 8 0 9 0;
#X connect 9 0 1 0;
#X connect 10 0 5 0;
#X connect 10 0 6 0;
