#N canvas 559 16 898 647 10;
#X obj 328 163 note~;
#X floatatom 163 79 5 0 0 0 - - -;
#X obj 519 -29 slider 100 0 15;
#X obj 387 30 / 100;
#X obj 515 118 slider 100 -100 15;
#X obj 391 138 / 100;
#X obj 322 209 dac~;
#X floatatom 389 50 5 0 0 0 - - -;
#X floatatom 391 161 5 0 0 0 - - -;
#X connect 0 0 6 0;
#X connect 0 0 6 1;
#X connect 1 0 0 0;
#X connect 2 0 3 0;
#X connect 3 0 0 1;
#X connect 3 0 7 0;
#X connect 4 0 5 0;
#X connect 5 0 0 2;
#X connect 5 0 8 0;
