#N canvas 312 96 450 300 10;
#X declare -lib mrpeach;
#X obj 146 46 import mrpeach;
#X obj 161 97 udpreceive 7000;
#X obj 160 144 unpackOSC;
#X obj 150 231 print;
#X obj 158 192 routeOSC /pixeltest;
#X obj 236 234 print;
#X connect 1 0 2 0;
#X connect 2 0 5 0;
#X connect 4 0 3 0;
